<svg width="108" height="71" viewBox="0 0 108 71" fill="none" xmlns="http://www.w3.org/2000/svg">
<g clip-path="url(#clip0)">
<path d="M22.3262 29.4819C20.2461 31.6082 17.9696 32.6714 15.4966 32.6714C11.66 32.6714 8.63232 31.1344 6.41357 28.0605C4.21794 24.9635 3.12012 20.8381 3.12012 15.6841C3.12012 12.356 3.74414 9.31673 4.99219 6.56641C6.24023 3.79297 7.97363 1.64355 10.1924 0.118164C12.4342 -1.40723 14.9303 -2.16992 17.6807 -2.16992C20.5234 -2.16992 23.0542 -1.32633 25.2729 0.36084C27.4917 2.04801 29.2135 4.47477 30.4385 7.64111C31.6634 10.7843 32.2759 14.3667 32.2759 18.3882V21.959C32.2759 30.5566 30.3807 37.2822 26.5903 42.1357C22.8231 46.9661 17.4727 49.4276 10.5391 49.52H9.53369V41.061H10.1924C14.029 41.0379 16.9064 40.0441 18.8247 38.0796C20.7661 36.1151 21.9333 33.2492 22.3262 29.4819ZM17.9927 24.9751C19.8879 24.9751 21.3786 23.6808 22.4648 21.0923V16.5854C22.4648 13.2804 22.0142 10.6919 21.1128 8.81982C20.2114 6.92464 19.0443 5.97705 17.6113 5.97705C16.2015 5.97705 15.0575 6.91309 14.1792 8.78516C13.3241 10.6341 12.8965 12.8991 12.8965 15.5801C12.8965 18.4922 13.3472 20.7918 14.2485 22.479C15.1499 24.1431 16.3979 24.9751 17.9927 24.9751ZM68.5386 28.1299C68.5386 35.1097 67.2674 40.4486 64.7251 44.1465C62.2059 47.8444 58.6004 49.6934 53.9087 49.6934C49.2632 49.6934 45.6693 47.9022 43.127 44.3198C40.6077 40.7144 39.3019 35.5604 39.2095 28.8579V19.3242C39.2095 12.3675 40.4691 7.05176 42.9883 3.37695C45.5075 -0.320964 49.1245 -2.16992 53.8394 -2.16992C58.5542 -2.16992 62.1712 -0.344076 64.6904 3.30762C67.2096 6.95931 68.4924 12.1711 68.5386 18.9429V28.1299ZM58.6929 17.9028C58.6929 13.9276 58.3 10.9461 57.5142 8.9585C56.7284 6.97087 55.5034 5.97705 53.8394 5.97705C50.7192 5.97705 49.1014 9.61719 48.9858 16.8975V29.4819C48.9858 33.5496 49.3787 36.5773 50.1646 38.5649C50.9735 40.5526 52.2215 41.5464 53.9087 41.5464C55.5034 41.5464 56.6821 40.6219 57.4448 38.7729C58.2306 36.9009 58.6466 34.0465 58.6929 30.21V17.9028ZM104.455 28.1299C104.455 35.1097 103.183 40.4486 100.641 44.1465C98.1219 47.8444 94.5164 49.6934 89.8247 49.6934C85.1792 49.6934 81.5853 47.9022 79.043 44.3198C76.5238 40.7144 75.2179 35.5604 75.1255 28.8579V19.3242C75.1255 12.3675 76.3851 7.05176 78.9043 3.37695C81.4235 -0.320964 85.0405 -2.16992 89.7554 -2.16992C94.4702 -2.16992 98.0872 -0.344076 100.606 3.30762C103.126 6.95931 104.408 12.1711 104.455 18.9429V28.1299ZM94.6089 17.9028C94.6089 13.9276 94.216 10.9461 93.4302 8.9585C92.6444 6.97087 91.4194 5.97705 89.7554 5.97705C86.6353 5.97705 85.0174 9.61719 84.9019 16.8975V29.4819C84.9019 33.5496 85.2948 36.5773 86.0806 38.5649C86.8895 40.5526 88.1375 41.5464 89.8247 41.5464C91.4194 41.5464 92.5981 40.6219 93.3608 38.7729C94.1466 36.9009 94.5627 34.0465 94.6089 30.21V17.9028Z" fill="url(#paint0_linear)"/>
<path d="M2.91211 67.8486H2.22852V71H1.01855V63.6035H2.22852V66.7344H2.83008L4.84668 63.6035H6.28906L3.82129 67.124L6.4668 71H4.94922L2.91211 67.8486ZM7.73828 71V63.6035H10.2197C11.0674 63.6035 11.7145 63.7767 12.1611 64.123C12.6077 64.4694 12.8311 64.973 12.8311 65.6338C12.8311 65.9756 12.7422 66.2832 12.5645 66.5566C12.3867 66.8301 12.127 67.0397 11.7852 67.1855C12.1634 67.2858 12.4665 67.4886 12.6943 67.7939C12.9268 68.0993 13.043 68.4684 13.043 68.9014C13.043 69.585 12.8288 70.1068 12.4004 70.4668C11.9766 70.8223 11.375 71 10.5957 71H7.73828ZM8.94141 67.7529V69.9814H10.6094C11.4251 69.9814 11.833 69.6077 11.833 68.8604C11.833 68.1221 11.4206 67.7529 10.5957 67.7529H8.94141ZM8.94141 66.7412H10.2061C11.1494 66.7412 11.6211 66.3949 11.6211 65.7021C11.6211 65.0049 11.1768 64.6471 10.2881 64.6289H8.94141V66.7412ZM15.0186 71.8545H13.9932L17.4863 61.0469H18.5049L15.0186 71.8545ZM23.5088 69.3252L25.4912 63.6035H26.9951V71H25.792V65.9004L23.9258 71H23.0986L21.1914 65.7773V71H19.9883V63.6035H21.5469L23.5088 69.3252Z" fill="#2E35AC"/>
</g>
<defs>
<linearGradient id="paint0_linear" x1="0" y1="0" x2="22.4438" y2="38.104" gradientUnits="userSpaceOnUse">
<stop stop-color="#D1490A"/>
<stop offset="1" stop-color="#0041CA"/>
</linearGradient>
<clipPath id="clip0">
<rect width="108" height="71" fill="white"/>
</clipPath>
</defs>
</svg>
